<?xml version="1.0" encoding="UTF-8" standalone="no"?>
<!-- Created with Inkscape (http://www.inkscape.org/) -->

<svg
   version="1.1"
   id="svg198"
   width="1167.1313"
   height="902.13013"
   viewBox="0 0 1167.1313 902.13011"
   sodipodi:docname="5452.eps"
   xml:space="preserve"
   xmlns:inkscape="http://www.inkscape.org/namespaces/inkscape"
   xmlns:sodipodi="http://sodipodi.sourceforge.net/DTD/sodipodi-0.dtd"
   xmlns="http://www.w3.org/2000/svg"
   xmlns:svg="http://www.w3.org/2000/svg"><defs
     id="defs202" /><sodipodi:namedview
     id="namedview200"
     pagecolor="#ffffff"
     bordercolor="#111111"
     borderopacity="1"
     inkscape:showpageshadow="0"
     inkscape:pageopacity="0"
     inkscape:pagecheckerboard="1"
     inkscape:deskcolor="#d1d1d1"
     showgrid="false" /><g
     id="g12999"
     transform="translate(-6505.1709,-3368.3094)"><path
       d="m 7094.7997,3858.9899 c -42.5933,-24.8534 -79.9373,-57.7467 -121.448,-84.3734 -46.184,-29.6133 -98.0226,-51.4533 -152.448,-58.36 -54.4266,-6.9066 -111.548,1.76 -159.0213,29.2534 -71.7587,41.5733 -114.7773,122.72 -124.5853,205.0666 -3.808,31.96 -3.112,64.8 5.516,95.8134 20.6373,74.1999 86.4466,130.8399 160.4213,152.2399 40.2453,11.64 82.5027,14.0134 124.336,16.32 200.256,11 402.7066,21.8934 600.052,-13.8666 28.6613,-5.2 57.668,-11.56 82.9826,-25.96 25.3134,-14.4134 46.772,-38.16 51.836,-66.84 3.304,-18.72 -0.5253,-38.08 -7.22,-55.8533 -16.2786,-43.2401 -49.2386,-78.9334 -88.0746,-103.9467 -38.836,-25.0267 -83.3734,-40.0267 -128.5,-49.92 -41.712,-9.1467 -76.472,-11.36 -117.8227,-6.04 -43.6333,5.6 -89.0307,-11.9467 -126.024,-33.5333"
       style="fill:#e2881b;fill-opacity:1;fill-rule:nonzero;stroke:none;stroke-width:0.133333"
       id="path2092-5" /><path
       d="m 7672.3024,3964.7099 c -34.932,-4.0934 -70.4574,-3.0934 -105.0974,2.9866 -6.488,1.1467 -13.228,2.5867 -18.336,6.7467 -7.6186,6.2 -9.7626,16.8133 -10.8386,26.5733 -3.14,28.4667 -1.5107,57.6934 5.1066,85.5734 7.776,32.76 22.7747,25.1866 43.4787,5.6266 37.5253,-35.4666 67.1133,-79.32 85.6867,-127.5066"
       style="fill:#e2881b;fill-opacity:1;fill-rule:nonzero;stroke:none;stroke-width:0.133333"
       id="path2094-5" /><path
       d="m 7297.9357,3747.7899 c 14.8533,31.88 25.0453,65.9333 30.1507,100.7333 0.956,6.5067 1.7013,13.36 -0.644,19.52 -3.4974,9.1867 -12.8974,14.5467 -21.8307,18.64 -26.04,11.9067 -54.3013,19.5467 -82.848,22.0133 -33.5467,2.8934 -31.0653,-13.72 -18.988,-39.52 21.888,-46.76 54.2373,-88.6133 94.16,-121.3866"
       style="fill:#e2881b;fill-opacity:1;fill-rule:nonzero;stroke:none;stroke-width:0.133333"
       id="path2096-4" /><path
       d="m 7210.9597,4201.4032 c -35.62,-5.96 -71.6653,-13.7734 -102.9173,-31.88 -31.2534,-18.0933 -79.9734,-102.12 -49.2467,-176.5067 29.5,-71.4133 84.3693,-95.0666 100.5907,-98.6933 82.672,-18.52 140.732,50.16 223.2866,69.2 41.4614,9.56 84.504,25.7066 109.252,60.3067 10.784,15.0933 17.3614,32.7599 22.4067,50.6 7.0747,25.0133 11.3213,52.0533 6.4107,77.8799 -4.5894,24.1334 -12.296,31.68 -34.4787,38.72 -56.4773,17.9467 -114.4267,24.16 -173.5667,21.5867 -34.1106,-1.4933 -68.0773,-5.5733 -101.7373,-11.2133"
       style="fill:#b76b18;fill-opacity:1;fill-rule:nonzero;stroke:none;stroke-width:0.133333"
       id="path2098-7" /><path
       d="m 7448.6477,3856.3499 c 30.1333,6.6933 63.2333,36.1333 84.756,58.2666 24.3053,24.9733 37.8693,59.08 42.2467,93.6667 4.376,34.5733 0.1013,69.7466 -7.548,103.76 -3.1067,13.8 -6.98,27.92 -15.7667,39.0133 -13.244,16.72 -52.984,37.96 -73.8547,42.3734 -120.2773,25.3866 -155.2933,26.8266 -228.8546,-1.5467 -44.232,-17.0534 -96.7507,-54.2134 -142.804,-136.96 -19.232,-34.56 -18.9107,-79.5867 3.1666,-112.4 27.38,-40.6933 82.9147,-74.84 131.252,-83.1333 66.5014,-11.4 140.6867,-17.84 207.4067,-3.04"
       style="fill:#e2881b;fill-opacity:1;fill-rule:nonzero;stroke:none;stroke-width:0.133333"
       id="path2100-6" /><path
       d="m 7359.793,4033.8565 c 2.5454,2.5467 4.5387,5.9867 4.2027,9.5734 -0.2533,2.72 -1.8067,5.1466 -3.6573,7.16 -5.756,6.2266 -14.324,9.0266 -22.6774,10.5333 -8.352,1.4933 -16.9453,1.96 -24.9933,4.6533 -4.116,-9.4266 -7.3187,-19.2666 -9.548,-29.3066 -0.944,-4.2534 -1.716,-8.64 -1.124,-12.9467 0.592,-4.32 2.6987,-9.8933 6.448,-12.1067 4.1387,-2.4533 17.9467,-4.1066 24.5813,6.0267 2.2187,3.3867 4.4174,6.44 4.6534,10.3867 7.5,-2.2934 16.6493,0.5466 22.1146,6.0266"
       style="fill:#593e39;fill-opacity:1;fill-rule:nonzero;stroke:none;stroke-width:0.133333"
       id="path2102-5" /><path
       d="m 7243.7037,4084.1365 c 0.7613,-0.7066 1.848,-0.5867 2.576,0.08 7.8907,7.2534 18.4507,12.4 29.344,12.0133 11.9267,-0.4266 21.8253,-8.3733 28.528,-17.7066 0.4987,-0.6933 0.9773,-1.4 1.4507,-2.1067 0.1546,-0.4133 0.3053,-0.84 0.4626,-1.2533 3.084,-8.0934 6.972,-15.88 11.6134,-23.2 1.2546,-1.9733 4.3693,-0.08 3.1106,1.9067 -0.704,1.1066 -1.384,2.2266 -2.0546,3.36 0.536,0.5866 0.5693,1.44 0.2133,2.1733 -3.04,6.2933 -6.1893,12.6933 -10.044,18.5467 -1.98,5.4 -3.584,10.9466 -4.768,16.5733 -0.6827,3.2533 -1.1573,6.6266 -0.78,9.9467 0.3613,3.1866 1.448,6.2799 2.7293,9.2133 2.6534,6.0533 6.28,11.6533 10.7174,16.56 4.9973,5.52 10.9386,10.08 17.56,13.4933 0.876,0.4534 1.0933,1.72 0.6066,2.5067 -0.544,0.8933 -1.6253,1.0667 -2.504,0.6133 -12.3466,-6.36 -22.568,-16.84 -28.6173,-29.3333 -1.5253,-3.16 -2.8867,-6.4667 -3.6387,-9.9067 -0.7613,-3.4667 -0.7386,-6.9867 -0.2226,-10.4933 0.5266,-3.5733 1.332,-7.1467 2.316,-10.6533 -2.2894,2.4666 -4.8094,4.7466 -7.6387,6.7466 -5.1053,3.6133 -10.9747,5.9467 -17.212,6.5333 -5.7213,0.5467 -11.58,-0.4666 -16.9373,-2.4933 -6.2734,-2.36 -11.9614,-6.0133 -16.892,-10.5333 -0.7254,-0.6667 -0.5974,-1.9467 0.081,-2.5867"
       style="fill:#593e39;fill-opacity:1;fill-rule:nonzero;stroke:none;stroke-width:0.133333"
       id="path2104-6" /><path
       d="m 7408.2397,4082.5099 c 6.696,11.5866 19.292,19.1599 32.5173,21.1999 13.224,2.04 26.928,-1.0933 38.8067,-7.2399 11.328,-5.88 21.7173,-15.2934 24.668,-27.7067 -2.9293,4.3066 -7.9853,6.6 -12.8933,8.3466 -16.5547,5.8801 -35.3547,7.7467 -51.452,0.7067 -16.096,-7.04 -28.232,-24.64 -25.052,-41.92 -1.104,6 -9.004,13.32 -10.6174,20.3734 -2.0173,8.7999 -0.488,18.44 4.0227,26.24"
       style="fill:#593e39;fill-opacity:1;fill-rule:nonzero;stroke:none;stroke-width:0.133333"
       id="path2106-9" /><path
       d="m 7202.385,3950.0965 c 4.8707,12.4533 16.1814,21.84 28.9467,25.8534 12.7653,4.0133 26.784,2.9866 39.456,-1.3067 12.084,-4.0933 23.7747,-11.84 28.564,-23.6667 -3.5453,3.8267 -8.888,5.32 -14.004,6.3067 -17.2533,3.32 -36.12,2.3333 -50.9707,-7.0533 -14.8493,-9.3867 -24.192,-28.6267 -18.44,-45.2267 -1.9986,5.7733 -10.912,11.8133 -13.5706,18.5333 -3.32,8.4 -3.2627,18.16 0.019,26.56"
       style="fill:#593e39;fill-opacity:1;fill-rule:nonzero;stroke:none;stroke-width:0.133333"
       id="path2108-3" /><path
       d="m 7529.165,3921.0032 c 0.972,-2.6533 1.94,-5.36 2.7174,-8.12 0.504,0.52 1.0106,1.04 1.504,1.5467 8.028,8.24 14.8773,17.4933 20.6173,27.4266 -9.884,13.16 -23.8627,25.7067 -34.2747,35.04 -12.5186,11.24 -26.648,20.68 -41.8666,27.8534 26.7786,-19.6934 39.8426,-52.5467 51.3026,-83.7467"
       style="fill:#b76b18;fill-opacity:1;fill-rule:nonzero;stroke:none;stroke-width:0.133333"
       id="path2110-7" /><path
       d="m 7423.5197,3993.0165 c 22.8947,-34.5866 28.248,-78.4533 50.9013,-113.1866 2.0694,-3.1734 4.2974,-6.32 6.3414,-9.5467 13.4653,8.3867 26.5093,19.1467 37.8813,29.72 -40.3453,19.08 -58.5347,67.3867 -95.124,93.0133"
       style="fill:#b76b18;fill-opacity:1;fill-rule:nonzero;stroke:none;stroke-width:0.133333"
       id="path2112-4" /><path
       d="m 7424.7477,3851.8032 c 8.0467,1.1733 16.0173,2.6133 23.8813,4.36 5.7694,1.28 11.648,3.4 17.532,6.1333 -1.3866,1.24 -2.6786,2.5734 -3.8586,3.96 -6.24,7.4134 -9.9454,16.56 -13.8694,25.4134 -13.7093,30.9333 -31.2586,60.16 -52.1173,86.8133 4.824,-39.0667 9.7587,-78.6 23.888,-115.3333 1.4613,-3.8 3.0187,-7.5734 4.544,-11.3467"
       style="fill:#b76b18;fill-opacity:1;fill-rule:nonzero;stroke:none;stroke-width:0.133333"
       id="path2114-5" /><path
       d="m 7365.197,3855.3499 c 0.864,-2.6134 1.832,-5.2134 2.8907,-7.76 9.8373,0.093 19.6453,0.48 29.38,1.2 -17.1133,25.08 -30.1733,52.9333 -38.4333,82.1466 -2.1894,-25.36 -1.8107,-51.4133 6.1626,-75.5866"
       style="fill:#b76b18;fill-opacity:1;fill-rule:nonzero;stroke:none;stroke-width:0.133333"
       id="path2116-2" /><path
       d="m 7294.1237,3802.2965 c -0.5453,-2.12 -1.2093,-4.4 -2.9587,-5.7066 -2.5026,-1.88 -6.12,-0.9734 -8.8333,0.5866 -6.024,3.48 -10.0693,9.4934 -13.744,15.4 -10.3853,16.68 -19.5653,34.12 -27.444,52.12 0.484,-1.0933 10.412,-1.7733 11.8867,-2.0133 4.2506,-0.68 8.508,-1.32 12.7706,-1.9333 8.5254,-1.2134 17.072,-2.2534 25.6347,-3.1734 5.3653,-0.5866 10.3333,-1.12 11.5333,-7.2 1.24,-6.2933 -1.3413,-13.9466 -2.5293,-20.0533 -1.8253,-9.4 -3.932,-18.7467 -6.316,-28.0267"
       style="fill:#e5cac6;fill-opacity:1;fill-rule:nonzero;stroke:none;stroke-width:0.133333"
       id="path2118-5" /><path
       d="m 7634.245,3998.9899 c -23.4293,-1.2 -46.9693,-0.2534 -70.2266,2.8266 7.1,26.4534 7.3213,55.4667 -0.3694,81.84 13.1094,-10.1066 24.1387,-24.92 34.612,-37.72 6.2427,-7.6266 12.3,-15.4133 18.268,-23.2533 2.192,-2.8933 14.8814,-23.84 17.716,-23.6933"
       style="fill:#e5cac6;fill-opacity:1;fill-rule:nonzero;stroke:none;stroke-width:0.133333"
       id="path2120-4" /><path
       d="m 6810.2344,3850.6165 c 27.228,17.9867 48.3907,44.48 61.8973,74.1867 13.5054,29.7067 19.5427,62.52 19.6827,95.1467 0.061,14.2933 -1,28.6799 -4.4827,42.5466 -7.8546,31.2667 -27.404,58.0533 -42.6453,86.4667 33.712,-22.4667 51.132,-62.16 64.5213,-100.3867 14.1614,-40.44 25.8294,-84.64 13.304,-125.6133 -11.8186,-38.6667 -44.276,-68.6667 -81.2666,-85 -36.992,-16.32 -71.2947,-29.72 -111.7267,-29.5733 -13.016,0.053 -44.2107,10.48 -49.1173,25.8533 5.1106,1.5067 12.2,-2.3733 17.2906,-4 10.3494,-3.3067 20.0374,-5.6 30.968,-5.28 28.8374,0.8267 57.4907,9.7467 81.5747,25.6533"
       style="fill:#ce781b;fill-opacity:1;fill-rule:nonzero;stroke:none;stroke-width:0.133333"
       id="path2122-7" /><path
       d="m 6515.7451,4114.5498 c 19.6786,57.04 65.1266,103.7467 119.9093,129.04 88.4573,40.8401 191.3227,26.7734 287.6107,11.8934 160.6853,-24.8267 329.9253,-48.76 481.9519,8.8933 5.5174,2.0934 11.0974,4.3067 16.9787,4.7733 23.1267,1.84 40.0933,-25.7333 35.4053,-48.4533 -4.688,-22.72 -23.7213,-39.6267 -43.4293,-51.8667 -45.6773,-28.3733 -99.892,-40.6133 -153.5933,-43.3333 -53.7014,-2.7067 -107.4027,3.6267 -160.8,9.96 -55.6347,6.5867 -111.2693,13.1733 -166.904,19.76 -62.3947,7.4 -125.604,14.7867 -187.8467,6.2 -62.2426,-8.5867 -124.4466,-35.0667 -163.4133,-84.3467 -36.2147,-45.8133 -48.5,-107.3866 -39.268,-164.3999 -6.3587,32.8266 -23.6413,59.6133 -31.56,91.7333 -8.9133,36.1466 -7.184,74.9467 4.9587,110.1466"
       style="fill:#f2ae25;fill-opacity:1;fill-rule:nonzero;stroke:none;stroke-width:0.133333"
       id="path2124-4" /><path
       d="m 7414.1717,4168.8298 c -19.2827,-11.9733 -40.0907,-21.0666 -61.7347,-27.7866 0.5667,1.0666 0.984,2.2267 1.204,3.4667 0.92,5.1866 -1.8493,10.2399 -4.3613,14.88 -12.86,23.7599 -21.3733,49.8533 -24.9933,76.6266 -0.2267,1.68 -0.4174,3.3867 -0.576,5.12 27.6053,5.52 54.8213,13.12 81.5066,23.24 5.5174,2.0934 11.0974,4.32 16.9787,4.7867 23.1267,1.8266 40.0933,-25.7467 35.4053,-48.4667 -4.688,-22.7067 -23.7213,-39.6267 -43.4293,-51.8667"
       style="fill:#b76b18;fill-opacity:1;fill-rule:nonzero;stroke:none;stroke-width:0.133333"
       id="path2126-4" /><path
       d="m 6594.8517,4092.0432 c -4.6533,-4.7467 -9.084,-9.72 -13.2373,-14.9734 -6.4173,-8.1199 -12.0693,-16.7466 -16.9973,-25.7333 -22.616,13.4534 -40.2254,41.0267 -48.816,63.3733 6.4866,18.7467 15.7693,36.3734 27.24,52.4934 4.6146,-15.1334 9.732,-30.0267 17.8773,-43.5067 8.028,-13.2933 20.0653,-25.12 33.9333,-31.6533"
       style="fill:#b76b18;fill-opacity:1;fill-rule:nonzero;stroke:none;stroke-width:0.133333"
       id="path2128-3" /><path
       d="m 6812.3904,4253.4299 c -4.5333,-18.6667 -5.84,-38.1067 -3.8413,-57.2001 1.1146,-10.6666 3.4453,-21.5733 8.1973,-31.08 -16.6933,0.3467 -33.3667,-0.013 -49.9867,-1.36 -12.76,33.88 -17.4706,72.7201 -7.1906,106.44 18.776,0.56 37.744,-0.04 56.7533,-1.4133 -1.2107,-5.16 -2.692,-10.2933 -3.932,-15.3866"
       style="fill:#b76b18;fill-opacity:1;fill-rule:nonzero;stroke:none;stroke-width:0.133333"
       id="path2130-0" /><path
       d="m 6647.7157,4248.7898 c 3.4254,-25.7333 8.0307,-51.1733 20.252,-73.84 5.292,-9.8133 12.6614,-18.8533 21.2827,-26.36 -17.0653,-5.64 -33.5613,-12.84 -48.96,-21.7066 -2.2533,3.6533 -4.816,7.1866 -7.2293,10.4933 -18.1147,24.8 -30.3347,53.88 -35.3867,84.1733 11.9573,8.5067 24.6907,15.9067 37.98,22.0534 3.992,1.84 8.0133,3.56 12.0613,5.1866"
       style="fill:#b76b18;fill-opacity:1;fill-rule:nonzero;stroke:none;stroke-width:0.133333"
       id="path2132-7" /><path
       d="m 6946.2731,4251.9632 c -1.4227,-26.3867 -2.8454,-52.7734 -4.268,-79.16 -0.3347,-6.1867 -0.6,-12.6267 0.3973,-18.7067 -3.176,0.3734 -6.352,0.76 -9.528,1.1333 -17.296,2.04 -34.6533,4.0934 -52.036,5.8 4.5387,13.3734 2.82,30.52 1.3613,45.3067 -1.7866,18.1067 -1.1466,37.44 4.2294,54.6533 12.356,-1.7466 24.6493,-3.6133 36.836,-5.5066 7.6506,-1.1734 15.3213,-2.36 23.008,-3.52"
       style="fill:#b76b18;fill-opacity:1;fill-rule:nonzero;stroke:none;stroke-width:0.133333"
       id="path2134-8" /><path
       d="m 7230.6837,4229.8165 c -0.012,-11.4667 -1.1907,-23.0667 0.1093,-34.4667 2.7734,-24.3466 17.5654,-47.0133 38.7227,-59.36 6.1973,-3.6133 12.9053,-6.2933 19.848,-8.0666 -9.5773,-1.1334 -19.1893,-1.9334 -28.7853,-2.4133 -30.38,-1.5334 -60.76,-0.1734 -91.0854,2.4399 1.34,3.64 2.224,7.4534 2.6054,11.2267 1.492,14.76 -2.6734,29.4133 -4.952,44.08 -2.352,15.12 -2.688,30.56 -1.0214,45.7867 21.6147,-0.5333 43.1534,-0.3334 64.5587,0.7733"
       style="fill:#b76b18;fill-opacity:1;fill-rule:nonzero;stroke:none;stroke-width:0.133333"
       id="path2136-6" /><path
       d="m 7118.3184,4195.8298 c -4.2934,-18.4266 -11.2667,-36.9333 -8.8614,-55.7066 0.256,-1.9867 0.68,-3.9867 1.24,-5.96 -3.6413,0.4266 -7.2813,0.8533 -10.9186,1.2933 -22.4494,2.6533 -44.896,5.32 -67.3454,7.9734 4.62,12.6266 4.2827,28.3066 4.7027,42.2399 0.5373,17.8 3.592,35.52 8.9853,52.4934 25.5054,-3 51.0614,-5.48 76.568,-7.1467 -0.097,-11.8133 -1.6973,-23.6933 -4.3706,-35.1867"
       style="fill:#b76b18;fill-opacity:1;fill-rule:nonzero;stroke:none;stroke-width:0.133333"
       id="path2138-8" /><text
       xml:space="preserve"
       style="font-style:normal;font-variant:normal;font-weight:normal;font-stretch:normal;font-size:102.593px;font-family:Chilanka;-inkscape-font-specification:Chilanka;letter-spacing:4.06097px;word-spacing:1.64042px;white-space:pre;inline-size:411.777;fill:#a8b4c8;fill-opacity:1;stroke:#000000;stroke-width:0.717;stroke-opacity:1"
       x="6689.2505"
       y="3107.0203"
       id="text9424"
       transform="matrix(2.0295675,0,0,1.7256922,-6704.5643,-1905.621)"><tspan
         x="6689.2505"
         y="3107.0203"
         id="tspan14268"><tspan
           dx="0 0 0 0 -1.6404195"
           style="fill:#b3b3b3;stroke:none"
           id="tspan14266">prrr
</tspan></tspan><tspan
         x="6689.2505"
         y="3235.2615"
         id="tspan14272"><tspan
           dx="0 0 1.6404214"
           style="fill:#b3b3b3;stroke:none"
           id="tspan14270">  prr...</tspan></tspan></text></g></svg>
