<?xml version="1.0" encoding="utf-8"?>
<svg viewBox="25968.416 12579.936 10017.835 6941.279" width="10017.835px" height="6941.279px" xmlns="http://www.w3.org/2000/svg">
  <g id="g1913" transform="matrix(66.210838, 0, 0, 66.210838, 10728.838867, -7041.161133)" style="">
    <path style="fill:#293241;fill-opacity:1;stroke-width:1.33333" d="m 276.9302,400.05138 c -1.76338,-1.39203 -1.12622,-4.35228 -1.56469,-6.55568 -0.35764,-1.79725 -1.05669,-3.60575 -0.86805,-5.4285 0.22025,-2.12822 1.52669,-3.99757 2.29003,-5.99635 0.76334,-1.99878 2.30687,-3.85683 2.29002,-5.99635 -0.0242,-3.06565 -3.41623,-8.53924 -3.41623,-8.53924 -1.87893,-4.69658 -3.81561,-11.03684 -4.30375,-14.08946 -1.12606,-7.04198 -2.07885,-7.72102 -12.25485,-8.73389 -9.06489,-0.90228 -12.83745,-3.6662 -18.20429,-7.42771 -1.04335,-0.73126 -2.10887,-1.6443 -2.56477,-2.83404 -0.51318,-1.33921 -0.0592,-2.87027 0.0159,-4.30247 0.185,-3.52694 0.49002,-7.10992 1.06953,-10.54125 0.5795,-3.43134 0.67589,-7.74388 0.21419,-9.58344 0,0 -0.18995,-2.39627 -0.83945,-3.34465 -1.22289,-1.78563 -5.30035,-3.7499 -5.30035,-3.7499 -8.23798,-5.8282 1.13805,-5.63197 3.43189,-6.4513 1.57861,-0.56386 3.45481,0.75345 4.64013,1.93877 1.12874,1.12874 1.23081,2.94576 1.84622,4.41864 0.61541,1.47288 1.58612,2.84369 1.84622,4.41863 0.59021,3.57377 -0.74307,10.8411 -0.74307,10.8411 0,0 -2.01391,7.44918 -0.74306,10.8411 0.5561,1.48423 2.09609,2.40885 3.36225,3.36226 2.63186,1.98178 5.74079,4.00272 8.64788,4.78552 l 5.28563,1.42327 5.86764,-1.21285 c 3.22721,-0.66706 10.1419,-2.28916 15.20098,-3.4847 3.11612,-0.73639 6.15743,-1.86426 9.33333,-2.27186 9.47911,-1.21656 19.11117,-0.3125 28.66667,-0.47354 9.94116,-0.16754 29.18716,-0.49111 29.82331,-0.51257 l 1.15665,-0.039 -0.93245,-9.95072 c -0.51286,-5.4729 -0.542,-10.5825 -0.0648,-11.35467 l 0.86769,-1.40395 4.87858,4.02134 4.87858,4.02134 h 3.83707 3.83707 l 3.96144,-3.33334 c 3.90257,-3.2838 9.09017,-4.4921 9.09017,-2.11729 0,0.66883 -0.858,5.7004 -1.90667,11.18128 l -1.90666,9.96524 -4.64978,9.23321 c -2.55737,5.07827 -8.29937,14.68943 -12.75999,21.35814 l -8.11023,12.12493 0.0204,8.46058 c 0.0226,9.35533 0.35705,10.15634 5.64625,13.52211 5.0845,3.23551 4.58103,4.93847 -1.46001,4.93847 h -5.12669 l -2.04586,-2.33333 c -3.0589,-3.48872 -6.36744,-10.51466 -6.36744,-13.52177 0,-3.38219 -2.60544,-5.05391 -4.12865,-2.64905 -0.64011,1.01061 -1.17303,4.00657 -1.18426,6.65767 l -0.0204,4.82019 2.76344,3.51314 2.76344,3.51315 h -5.94126 -5.94127 l -0.80397,-3 c -0.44218,-1.65 -0.82135,-7.5 -0.84259,-13 -0.0212,-5.5 -0.60272,-10.89218 -1.29217,-11.98262 l -1.25354,-1.98262 -10.50024,-0.31697 -10.50025,-0.31696 -2.94649,3.98535 c -1.62058,2.19194 -6.22219,5.83403 -10.2258,8.09353 0,0 -5.87441,1.70213 -7.2793,4.10818 -0.4998,0.85598 -0.24511,2.01321 0,2.97364 0.57336,2.24661 1.5,4.38281 3.33334,6.10514 1.83333,1.72232 3.33333,3.62691 3.33333,4.23242 0,1.45362 -10.13727,-0.0219 -15.20592,-0.0263 -1e-5,0 -1e-5,0 -2e-5,0 z" id="path429"/>
  </g>
</svg>